
<svg width="18" height="18" fill="none" xmlns="http://www.w3.org/2000/svg">
  <path fill-rule="evenodd" clip-rule="evenodd" d="M8.5 6.8 1 14.2v.5L3.3 17a.4.4 0 0 0 .5 0l7.4-7.4-2.7-2.7ZM13.6 6.6l-2.2-2.2a.4.4 0 0 0-.5 0L9 6.3 11.7 9l2-2v-.4ZM7.8 3.3c-.4-.4-.4-1.3 0-1.7a.4.4 0 0 0 0-.5.4.4 0 0 0-.5 0c-.2.2-.5.3-.8.3-.4 0-.7-.1-.9-.3a.4.4 0 1 0-.5.5c.4.4.4 1.3 0 1.7a.4.4 0 0 0 0 .5h.5c.2-.2.5-.3.9-.3.3 0 .6.1.8.3l.2.1a.4.4 0 0 0 .3-.6ZM14 3.5a.4.4 0 0 0 .7.3c.2-.2.5-.3.8-.3.4 0 .7.1.9.3l.2.1a.4.4 0 0 0 .3-.6c-.4-.4-.4-1.3 0-1.7a.4.4 0 0 0 0-.5.4.4 0 0 0-.5 0c-.2.2-.5.3-.9.3-.3 0-.6-.1-.8-.3a.4.4 0 1 0-.5.5c.4.4.4 1.3 0 1.7l-.1.2ZM16.9 12.3c-.4-.4-.4-1.2 0-1.6a.4.4 0 0 0 0-.5.4.4 0 0 0-.5 0c-.2.2-.5.3-.9.3-.3 0-.6-.1-.8-.3a.4.4 0 1 0-.5.5c.4.4.4 1.3 0 1.7a.4.4 0 1 0 .5.5c.2-.2.5-.3.8-.3.4 0 .7.1.9.3l.2.1a.4.4 0 0 0 .3-.7Z" fill="#fff"/>
</svg>